<svg xmlns="http://www.w3.org/2000/svg" viewBox="0 0 249 79"><g fill="#FFF"><path d="M11.2 22.9c0-7.5 5.7-12.7 12.9-12.7 4 0 7.2 1.7 9.4 4.5l-1.9 1.2c-1.6-2.2-4.4-3.6-7.5-3.6-5.8 0-10.4 4.4-10.4 10.5 0 6.2 4.5 10.6 10.4 10.6 3 0 6-1.4 7.5-3.6l2 1.2c-2.3 2.8-5.4 4.5-9.4 4.5-7.3.2-13-5.1-13-12.6"/><path d="M24.1 35.9c-7.6 0-13.1-5.5-13.1-13S16.5 10 24.1 10c3.9 0 7.1 1.6 9.5 4.6l.1.2-2.3 1.4V16c-1.6-2.2-4.3-3.5-7.3-3.5-5.9 0-10.1 4.3-10.1 10.3 0 5.9 4.4 10.4 10.1 10.4 3 0 5.8-1.4 7.3-3.5l.1-.2 2.3 1.4-.2.2c-2.4 3.2-5.6 4.8-9.5 4.8m0-25.5c-7.4 0-12.7 5.3-12.7 12.5 0 7.3 5.4 12.6 12.7 12.6 3.7 0 6.7-1.4 9.1-4.3l-1.6-1c-1.6 2.1-4.5 3.5-7.5 3.5-6 0-10.6-4.7-10.6-10.8 0-6.1 4.5-10.7 10.6-10.7 3 0 5.8 1.3 7.5 3.5l1.5-1c-2.2-2.9-5.3-4.3-9-4.3M52.8 10.7l10.5 24.5h-2.8l-2.5-6H44.7l-2.5 5.9h-2.8l10.5-24.5h2.9zm-1.5 2.7l-5.9 13.7h11.7l-5.8-13.7z"/><path d="M63.6 35.4h-3.2l-2.6-5.9h-13l-2.5 5.9H39l10.7-24.9h3.1l.1.1 10.7 24.8zm-2.9-.5H63l-10.4-24H50l-10.4 24H42l2.5-5.9h13.6l2.6 5.9zm-3.2-7.6H45.1l6.2-14.4 6.2 14.4zm-11.7-.4h11.1L51.4 14l-5.6 12.9zM71.2 25.9V10.7h2.4v15c0 4.8 2.7 7.8 7.6 7.8 4.9 0 7.6-2.9 7.6-7.8v-15h2.4v15.1c0 6.1-3.4 9.9-10 9.9-6.7 0-10-3.8-10-9.8"/><path d="M81.2 35.9c-6.5 0-10.2-3.7-10.2-10V10.5h2.9v15.2c0 4.8 2.7 7.6 7.3 7.6 4.7 0 7.4-2.8 7.4-7.6V10.5h2.9v15.3c-.1 6.4-3.8 10.1-10.3 10.1m-9.8-25v15c0 6.1 3.6 9.6 9.8 9.6 6.3 0 9.8-3.4 9.8-9.7V10.9h-2v14.8c0 5.1-2.8 8-7.8 8-4.9 0-7.8-2.9-7.8-8V10.9h-2zM100.7 31.8l1.5-1.7c1.6 1.8 4.4 3.5 7.9 3.5 4.8 0 6.6-2.4 6.6-4.9 0-7.1-15.3-3.1-15.3-11.8 0-4 3.8-6.7 8.4-6.7 3.9 0 6.8 1.4 8.8 3.5l-1.4 1.7c-1.8-2.1-4.5-3.1-7.3-3.1-3.3 0-5.9 1.9-5.9 4.5 0 6.1 15.3 2.6 15.3 11.8 0 3.9-2.8 7.1-9.2 7.1-4.2 0-7.5-1.7-9.4-3.9"/><path d="M110.1 35.9c-3.9 0-7.4-1.5-9.5-4l-.1-.1 1.8-2.1.2.2c1.5 1.7 4.3 3.4 7.8 3.4 4 0 6.4-1.8 6.4-4.7 0-3.2-3.4-4.1-6.9-5-3.9-1-8.4-2.1-8.4-6.9 0-4 3.6-6.9 8.7-6.9 3.6 0 6.7 1.2 8.9 3.6l.1.1-1.7 2-.2-.2c-1.6-1.9-4.2-3-7.2-3-3.3 0-5.7 1.8-5.7 4.3 0 2.6 2.9 3.3 6.3 4.2 4.2 1.1 9 2.3 9 7.6 0 1.9-.7 7.5-9.5 7.5m-9.1-4.1c2.1 2.4 5.4 3.7 9.1 3.7 5.7 0 9-2.6 9-6.9 0-4.9-4.6-6.1-8.7-7.2-3.4-.9-6.6-1.7-6.6-4.6 0-2.7 2.6-4.7 6.1-4.7 3 0 5.6 1 7.3 3l1.1-1.4c-2.1-2.2-5-3.3-8.5-3.3-4.8 0-8.2 2.7-8.2 6.5 0 4.4 4.1 5.5 8.1 6.5 3.7.9 7.2 1.8 7.2 5.4 0 2.5-1.8 5.1-6.8 5.1-3.5 0-6.4-1.7-7.9-3.4l-1.2 1.3zM129 35.2V10.7h16.3v2.2h-13.9v8.6h13.7v2.2h-13.7V33h13.9v2.2"/><path d="M145.5 35.4h-16.8V10.5h16.8v2.6h-13.9v8.2h13.6v2.6h-13.6v8.9h13.9v2.6zm-16.3-.5h15.9v-1.8h-13.9v-9.7h13.6v-1.8h-13.6v-9h13.9v-1.8h-15.9v24.1zM155.6 35.2V10.7h10.6c4.4 0 7.2 2.4 7.2 6.3 0 2.9-2 5-4.2 5.6 2.6.7 4.7 3.2 4.7 6 0 4-2.8 6.6-7.5 6.6h-10.8zm15.2-18c0-2.6-1.7-4.3-4.8-4.3h-8v8.6h7.9c3.2 0 4.9-1.9 4.9-4.3m.5 11.2c0-2.4-1.8-4.7-5.2-4.7H158V33h8.1c3.2 0 5.2-1.8 5.2-4.6"/><path d="M166.4 35.4h-11V10.5h10.8c4.5 0 7.4 2.5 7.4 6.5 0 2.9-1.8 4.8-3.7 5.6 2.4.9 4.2 3.4 4.2 6 0 4.1-3 6.8-7.7 6.8m-10.6-.5h10.6c4.5 0 7.3-2.5 7.3-6.4 0-2.6-2-5.1-4.6-5.8l-.8-.2.8-.2c1.9-.5 4-2.4 4-5.4 0-3.7-2.7-6.1-6.9-6.1h-10.4v24.1zm10.3-1.7h-8.3v-9.7h8.3c3.7 0 5.4 2.5 5.4 4.9 0 2.9-2.1 4.8-5.4 4.8m-7.9-.4h7.9c3.1 0 4.9-1.7 4.9-4.4 0-2.1-1.5-4.5-4.9-4.5h-7.9v8.9zm7.7-11.1h-8.1v-9h8.1c3.1 0 5.1 1.7 5.1 4.5 0 2.7-2 4.5-5.1 4.5m-7.7-.4h7.7c2.9 0 4.6-1.6 4.6-4.1 0-2.6-1.7-4.1-4.6-4.1h-7.7v8.2zM182.6 22.9c0-7.2 4.9-12.8 12.4-12.8s12.4 5.6 12.4 12.8c0 7.1-4.9 12.8-12.4 12.8s-12.4-5.7-12.4-12.8m22.3 0c0-6.1-3.9-10.6-9.9-10.6s-9.9 4.5-9.9 10.6c0 6 3.8 10.6 9.9 10.6 6 0 9.9-4.6 9.9-10.6"/><path d="M195 35.9c-7.3 0-12.7-5.5-12.7-13s5.3-13 12.7-13c7.3 0 12.6 5.5 12.6 13s-5.3 13-12.6 13m0-25.5c-7.2 0-12.2 5.2-12.2 12.6 0 7.3 5.1 12.5 12.2 12.5s12.2-5.3 12.2-12.5-5.1-12.6-12.2-12.6m0 23.3c-5.9 0-10.1-4.4-10.1-10.8S189 12.1 195 12.1c5.9 0 10.1 4.4 10.1 10.8S201 33.7 195 33.7m0-21.1c-5.8 0-9.7 4.2-9.7 10.4 0 6.1 4 10.4 9.7 10.4 5.7 0 9.7-4.3 9.7-10.4 0-6.2-4-10.4-9.7-10.4M234.3 35.2l-8.8-10.9-8.8 10.9h-3.1L224 22.6l-9.8-11.9h3.1l8.2 10.2 8.2-10.2h3L227 22.6l10.3 12.6"/><path d="M237.7 35.4h-3.6l-8.7-10.7-8.7 10.7h-3.6l10.5-12.7-9.9-12.1h3.6l8.1 10.1 8.1-10.1h3.6l-9.9 12.1 10.5 12.7zm-3.3-.5h2.5l-10.1-12.4 9.6-11.7h-2.5l-8.3 10.3-8.3-10.3h-2.5l9.6 11.7-10.1 12.3h2.5l8.9-11 8.7 11.1zM2.1 46H0V0h248v2.1H2.1M115 61.9v-8.4h4.4c1.6 0 2.4 1 2.4 2.1s-.7 1.8-1.4 1.9c.9.1 1.6 1 1.6 2.1 0 1.3-.8 2.3-2.4 2.3H115zm5-6c0-.5-.4-.9-1-.9h-2.2v1.8h2.2c.6 0 1-.3 1-.9m.1 3.5c0-.5-.4-1-1.1-1h-2.3v1.9h2.3c.7 0 1.1-.3 1.1-.9M125.2 61.9v-3.5l-3.2-4.9h2l2.1 3.4 2.1-3.4h2l-3.2 4.9v3.5M137.8 64.9s2.1 2.5 5 2.5c1.3 0 2.3-.5 2.3-1.6 0-2.4-8.8-2.3-8.8-7.7 0-3.3 3-4.9 6.5-4.9 2.3 0 5.9.8 5.9 3.5v1.7H145v-.8c0-.8-1.2-1.2-2.1-1.2-1.5 0-2.5.5-2.5 1.5 0 2.6 8.9 2.1 8.9 7.7 0 3.1-2.8 5.1-6.4 5.1-4.6 0-6.9-3-6.9-3l1.8-2.8zM158.2 53.1c4.8 0 7.4 3.5 7.4 7.9 0 .5-.1 1.5-.1 1.5H154c.3 2.9 2.5 4.5 5 4.5 2.7 0 4.7-1.9 4.7-1.9l1.7 2.9s-2.6 2.5-6.7 2.5c-5.5 0-9-4-9-8.8.1-5 3.5-8.6 8.5-8.6m3.2 6.6c-.1-2-1.4-3.4-3.1-3.4-2.1 0-3.6 1.3-4.1 3.4h7.2zM167 57.6c-.2-.4-.5-.6-.9-.6h-.4v-3.5h2.4c1.4 0 2 .4 2.5 1.6l3.1 8.8c.4 1 .6 2.4.6 2.4h.1s.3-1.4.6-2.4l3.1-8.8c.4-1.1 1.1-1.6 2.5-1.6h2.2V57h-.4c-.5 0-.8.2-.9.6l-4.8 12.6h-4.9L167 57.6zM190.8 53.1c4.8 0 7.4 3.5 7.4 7.9 0 .5-.1 1.5-.1 1.5h-11.5c.3 2.9 2.5 4.5 5 4.5 2.7 0 4.7-1.9 4.7-1.9L198 68s-2.6 2.5-6.7 2.5c-5.5 0-9-4-9-8.8 0-5 3.4-8.6 8.5-8.6m3.1 6.6c-.1-2-1.4-3.4-3.1-3.4-2.1 0-3.6 1.3-4.1 3.4h7.2zM200.6 57.8c0-.5-.3-.7-.7-.7h-1.3v-3.5h3.8c1.5 0 2.2.7 2.2 1.9v.5c0 .4-.1.7-.1.7h.1c.7-1.4 2.5-3.5 5.9-3.5 3.7 0 5.8 1.9 5.8 6.4V66c0 .5.3.7.7.7h1.3v3.5h-4c-1.6 0-2.2-.7-2.2-2.2v-7.7c0-2-.5-3.4-2.6-3.4-2.2 0-3.9 1.4-4.5 3.4-.2.7-.3 1.4-.3 2.2v7.7h-4.1V57.8zM219.6 51.2c0-.5-.3-.7-.7-.7h-1.3V47h4c1.5 0 2.2.7 2.2 2.2V66c0 .5.3.7.7.7h1.3v3.5h-3.9c-1.6 0-2.2-.7-2.2-2.2V51.2z"/><path d="M229.2 73.6c1.1 0 2.2-.7 2.8-2.1l.6-1.3-5.6-12.6c-.2-.5-.4-.6-.9-.6h-.5v-3.5h2.8c1.2 0 1.8.4 2.2 1.6l3.3 8.4c.3.9.6 2.2.6 2.2h.1s.3-1.4.6-2.2l2.9-8.4c.4-1.1 1.1-1.6 2.2-1.6h2.8V57h-.5c-.5 0-.8.1-1 .6l-6 15.1c-1.2 3-3.5 4.4-6 4.4-2.6 0-4.2-1.7-4.2-1.7l1.6-2.9c-.2-.1.8 1.1 2.2 1.1M245.3 52.7v1.9h-.4v-1.9h-.8v-.4h2v.4h-.8zm3.2 1.9v-1.8l-.6 1.8h-.5l-.6-1.8v1.8h-.4v-2.3h.6l.6 1.8.6-1.8h.6v2.3h-.3zM0 46h212.6M0 45h212.6v2.1H0zM228.5 46H249M228.5 45h20.6v2.1h-20.6zM248 .2V46"/><path d="M246.9.2h2.1V46h-2.1z"/></g></svg>