<svg xmlns="http://www.w3.org/2000/svg" viewBox="0 0 900 745.9"><g fill="none" stroke="#D1D3D4" stroke-width="2" stroke-miterlimit="10"><path d="M493.1 578.9h29v6.2h-29zM493.1 589.5h29v6.2h-29zM493.1 600.9h29v6.2h-29zM493.1 613.1h29v6.2h-29zM493.1 568.2h29v6.2h-29z"/></g><path fill="none" stroke="#47BAC1" stroke-width="2" stroke-miterlimit="10" d="M87.8 129.7h97.5v72.7H87.8z"/><path fill="#47BAC1" stroke="#47BAC1" stroke-width="2" stroke-miterlimit="10" d="M87.8 123.5h97.5v6.1H87.8z"/><circle fill="#FFF" cx="91.6" cy="126.7" r="1.5"/><circle fill="#FFF" cx="96.7" cy="126.7" r="1.5"/><circle fill="#FFF" cx="101.7" cy="126.7" r="1.5"/><path fill="none" stroke="#47BAC1" stroke-width="2" stroke-miterlimit="10" d="M246.5 313.5H344v72.7h-97.5z"/><path fill="#47BAC1" stroke="#47BAC1" stroke-width="2" stroke-miterlimit="10" d="M246.5 307.4H344v6.1h-97.5z"/><circle fill="#FFF" cx="250.3" cy="310.5" r="1.5"/><circle fill="#FFF" cx="255.4" cy="310.5" r="1.5"/><circle fill="#FFF" cx="260.4" cy="310.5" r="1.5"/><text transform="translate(86.788 229.815)"><tspan x="0" y="0" font-family="'ARSMaquettePro-Regular'" font-size="12">Visits Causebox</tspan><tspan x="0" y="14.4" font-family="'ARSMaquettePro-Regular'" font-size="12">homepage</tspan></text><path fill="none" stroke="#47BAC1" stroke-width="2" stroke-miterlimit="10" d="M128.8 353.2h92.1"/><text transform="translate(244.884 413.66)"><tspan x="0" y="0" font-family="'ARSMaquettePro-Regular'" font-size="12">User Enters </tspan><tspan x="0" y="14.4" font-family="'ARSMaquettePro-Regular'" font-size="12">Discovery Mode</tspan><tspan x="0" y="28.8" font-family="'ARSMaquettePro-LightItalic'" font-size="12"> - reads how it works</tspan><tspan x="0" y="43.2" font-family="'ARSMaquettePro-LightItalic'" font-size="12"> - Enters FAQ</tspan></text><path fill="none" stroke="#47BAC1" stroke-width="2" stroke-miterlimit="10" d="M458.4 318.1h97.5v72.7h-97.5z"/><path fill="#47BAC1" stroke="#47BAC1" stroke-width="2" stroke-miterlimit="10" d="M458.4 312h97.5v6.1h-97.5z"/><circle fill="#FFF" cx="462.2" cy="315.1" r="1.5"/><circle fill="#FFF" cx="467.3" cy="315.1" r="1.5"/><circle fill="#FFF" cx="472.3" cy="315.1" r="1.5"/><text transform="translate(457.315 418.247)"><tspan x="0" y="0" font-family="'ARSMaquettePro-Regular'" font-size="12">Picks which charity </tspan><tspan x="0" y="14.4" font-family="'ARSMaquettePro-Regular'" font-size="12">to send proceeds to</tspan></text><path fill="none" stroke="#47BAC1" stroke-width="2" stroke-miterlimit="10" d="M361.5 349.8h75.1M675.7 128.7h97.5v72.7h-97.5z"/><path fill="#47BAC1" stroke="#47BAC1" stroke-width="2" stroke-miterlimit="10" d="M675.7 122.5h97.5v6.1h-97.5z"/><circle fill="#FFF" cx="679.5" cy="125.7" r="1.5"/><circle fill="#FFF" cx="684.6" cy="125.7" r="1.5"/><circle fill="#FFF" cx="689.7" cy="125.7" r="1.5"/><text transform="translate(673.954 228.815)" font-family="'ARSMaquettePro-Regular'" font-size="12">Enters Shipping Address</text><path fill="none" stroke="#47BAC1" stroke-width="2" stroke-miterlimit="10" d="M576.1 160.4h75.1M458.4 129.7h97.5v72.7h-97.5z"/><path fill="#47BAC1" stroke="#47BAC1" stroke-width="2" stroke-miterlimit="10" d="M458.4 123.5h97.5v6.1h-97.5z"/><circle fill="#FFF" cx="462.2" cy="126.7" r="1.5"/><circle fill="#FFF" cx="467.3" cy="126.7" r="1.5"/><circle fill="#FFF" cx="472.3" cy="126.7" r="1.5"/><text transform="translate(457.315 229.815)" font-family="'ARSMaquettePro-Regular'" font-size="12">Fills out Profile</text><path fill="none" stroke="#47BAC1" stroke-width="2" stroke-miterlimit="10" d="M507.1 253.3v37.5M675.7 318.1h97.5v72.7h-97.5z"/><path fill="#47BAC1" stroke="#47BAC1" stroke-width="2" stroke-miterlimit="10" d="M675.7 312h97.5v6.1h-97.5z"/><circle fill="#FFF" cx="679.5" cy="315.1" r="1.5"/><circle fill="#FFF" cx="684.6" cy="315.1" r="1.5"/><circle fill="#FFF" cx="689.7" cy="315.1" r="1.5"/><text transform="translate(673.954 418.247)" font-family="'ARSMaquettePro-Regular'" font-size="12">Enters Credit Card Info</text><path fill="none" stroke="#47BAC1" stroke-width="2" stroke-miterlimit="10" d="M724.5 253.6v37.6M724.5 427.3V523M675.7 551.5h97.5v72.7h-97.5z"/><path fill="#47BAC1" stroke="#47BAC1" stroke-width="2" stroke-miterlimit="10" d="M675.7 545.4h97.5v6.1h-97.5z"/><circle fill="#FFF" cx="679.5" cy="548.6" r="1.5"/><circle fill="#FFF" cx="684.6" cy="548.6" r="1.5"/><circle fill="#FFF" cx="689.7" cy="548.6" r="1.5"/><text transform="translate(673.954 651.708)" font-family="'ARSMaquettePro-Regular'" font-size="12">Confirmation Email</text><path fill="none" stroke="#D1D3D4" stroke-width="2" stroke-miterlimit="10" d="M580.2 583.3h75M246.5 547.2H344v72.7h-97.5z"/><path fill="#D1D3D4" stroke="#D1D3D4" stroke-width="2" stroke-miterlimit="10" d="M246.5 541.1H344v6.1h-97.5z"/><circle fill="#FFF" cx="250.3" cy="544.2" r="1.5"/><circle fill="#FFF" cx="255.4" cy="544.2" r="1.5"/><circle fill="#FFF" cx="260.4" cy="544.2" r="1.5"/><text transform="translate(244.884 647.385)" font-family="'ARSMaquettePro-Regular'" font-size="12">Go to My Account</text><path fill="none" stroke="#D1D3D4" stroke-width="2" stroke-miterlimit="10" d="M458.4 547.2h97.5v72.7h-97.5z"/><path fill="#D1D3D4" stroke="#D1D3D4" stroke-width="2" stroke-miterlimit="10" d="M458.4 541.1h97.5v6.1h-97.5z"/><circle fill="#FFF" cx="462.2" cy="544.2" r="1.5"/><circle fill="#FFF" cx="467.3" cy="544.2" r="1.5"/><circle fill="#FFF" cx="472.3" cy="544.2" r="1.5"/><text transform="translate(457.316 647.385)" font-family="'ARSMaquettePro-Regular'" font-size="12">Account Settings</text><path fill="none" stroke="#D1D3D4" stroke-width="2" stroke-miterlimit="10" d="M361.5 586.9h75.1"/><text transform="translate(143.362 336.697)" font-family="'ARSMaquettePro-LightItalic'" font-size="12">(if non user)</text><text transform="translate(143.362 572.236)" font-family="'ARSMaquettePro-LightItalic'" font-size="12">(if return user)</text><path fill="none" stroke="#47BAC1" stroke-width="2" stroke-miterlimit="10" d="M128.9 281.2v305.1h92.3"/><path fill="#E6E7E8" d="M281.4 322.5h27.3v5.8h-27.3z"/><g fill="#E6E7E8" stroke="#D1D3D4" stroke-width="2" stroke-miterlimit="10"><path d="M256.8 343h20.3v28.8h-20.3z"/><circle cx="267" cy="342.9" r="4.2"/></g><g fill="#E6E7E8" stroke="#D1D3D4" stroke-width="2" stroke-miterlimit="10"><path d="M284.8 343h20.3v28.8h-20.3z"/><circle cx="295" cy="342.9" r="4.2"/></g><g fill="#E6E7E8" stroke="#D1D3D4" stroke-width="2" stroke-miterlimit="10"><path d="M312.8 343h20.3v28.8h-20.3z"/><circle cx="323" cy="342.9" r="4.2"/></g><path fill="#E6E7E8" stroke="#D1D3D4" stroke-width="2" stroke-miterlimit="10" d="M469.3 336.7H490v20.7h-20.7zM496.7 336.7h20.7v20.7h-20.7zM524.1 336.7h20.7v20.7h-20.7zM469.3 362.6H490v20.7h-20.7zM496.7 362.6h20.7v20.7h-20.7zM524.1 362.6h20.7v20.7h-20.7z"/><path fill="#E6E7E8" d="M493.4 324.8h27.3v5.8h-27.3zM494.4 140.8h27.3v5.8h-27.3z"/><g stroke="#D1D3D4" stroke-width="2" stroke-miterlimit="10"><path fill="#E6E7E8" d="M493.8 172.8h29v7.3h-29z"/><path fill="none" d="M493.8 162.6h29v6.2h-29zM493.8 151.9h29v6.2h-29z"/></g><path fill="#D1D3D4" stroke="#D1D3D4" stroke-width="2" stroke-miterlimit="10" d="M496.5 184.4h23.3v5.6h-23.3z"/><path fill="#E6E7E8" d="M708.7 140.8H736v5.8h-27.3z"/><g stroke="#D1D3D4" stroke-width="2" stroke-miterlimit="10"><path fill="#E6E7E8" d="M708.1 172.8h29v7.3h-29z"/><path fill="none" d="M708.1 162.6h29v6.2h-29zM708.1 151.9h29v6.2h-29z"/></g><path fill="#D1D3D4" stroke="#D1D3D4" stroke-width="2" stroke-miterlimit="10" d="M710.8 184.4h23.3v5.6h-23.3z"/><path fill="#E6E7E8" d="M709.7 328.6H737v5.8h-27.3z"/><g stroke="#D1D3D4" stroke-width="2" stroke-miterlimit="10"><path fill="#E6E7E8" d="M709.1 360.5h29v7.3h-29z"/><path fill="none" d="M709.1 350.4h29v6.2h-29zM709.1 339.7h29v6.2h-29z"/></g><path fill="#D1D3D4" stroke="#D1D3D4" stroke-width="2" stroke-miterlimit="10" d="M711.8 372.2h23.3v5.6h-23.3z"/><path fill="#E6E7E8" d="M247.7 560.7h95.4v46.4h-95.4zM252 551.8h16.4v5.6H252zM301.2 553.6h8.2v2.8h-8.2zM313.6 553.6h8.2v2.8h-8.2z"/><path fill="#47BAC1" d="M327.3 553.6h8.2v2.8h-8.2z"/><path fill="#E6E7E8" d="M493.4 555.3h27.3v5.8h-27.3z"/><path fill="none" stroke="#47BAC1" stroke-width="2" stroke-miterlimit="10" d="M698.5 572.2h53.9V600h-53.9z"/><path fill="none" stroke="#47BAC1" stroke-width="2" stroke-linecap="round" stroke-miterlimit="10" d="M699.6 573.3s26.1 36.4 51.1 0M698.5 599.6l13.9-13.9M751.9 599.6L738.3 586"/></svg>